<svg width="217" height="40" viewBox="0 0 217 40" fill="none" xmlns="http://www.w3.org/2000/svg">
<rect x="16" y="5.94318" width="4" height="28" fill="#EE0000"/>
<rect x="8" y="5.94318" width="4" height="28" fill="#0D8DF3"/>
<rect y="5.94318" width="4" height="28" fill="#EE0000"/>
<path d="M38.2955 8.31818L43.5 25.3636H43.6932L48.8977 8.31818H55.1932L47.3409 31.5909H39.8523L32 8.31818H38.2955Z" fill="#404040"/>
<path d="M62.6839 8.31818V31.5909H57.0589V8.31818H62.6839Z" fill="#404040"/>
<path d="M78.1547 15.2955C78.0789 14.4621 77.7418 13.8144 77.1433 13.3523C76.5524 12.8826 75.7077 12.6477 74.6092 12.6477C73.8819 12.6477 73.2759 12.7424 72.791 12.9318C72.3062 13.1212 71.9425 13.3826 71.7001 13.7159C71.4577 14.0417 71.3327 14.4167 71.3251 14.8409C71.31 15.1894 71.3781 15.4962 71.5297 15.7614C71.6887 16.0265 71.916 16.2614 72.2115 16.4659C72.5145 16.6629 72.8781 16.8371 73.3024 16.9886C73.7266 17.1402 74.2039 17.2727 74.7342 17.3864L76.7342 17.8409C77.8857 18.0909 78.9009 18.4242 79.7797 18.8409C80.666 19.2576 81.4085 19.7538 82.0069 20.3295C82.613 20.9053 83.0713 21.5682 83.3819 22.3182C83.6925 23.0682 83.8516 23.9091 83.8592 24.8409C83.8516 26.3106 83.4804 27.572 82.7456 28.625C82.0107 29.678 80.9539 30.4848 79.5751 31.0455C78.2039 31.6061 76.5486 31.8864 74.6092 31.8864C72.6622 31.8864 70.9653 31.5947 69.5183 31.0114C68.0713 30.428 66.9463 29.5417 66.1433 28.3523C65.3403 27.1629 64.9274 25.6591 64.9047 23.8409H70.291C70.3365 24.5909 70.5372 25.2159 70.8933 25.7159C71.2494 26.2159 71.738 26.5947 72.3592 26.8523C72.988 27.1098 73.7153 27.2386 74.541 27.2386C75.2986 27.2386 75.9425 27.1364 76.4728 26.9318C77.0107 26.7273 77.4236 26.4432 77.7115 26.0795C77.9994 25.7159 78.1471 25.2992 78.1547 24.8295C78.1471 24.3902 78.0107 24.0152 77.7456 23.7045C77.4804 23.3864 77.0713 23.1136 76.5183 22.8864C75.9728 22.6515 75.2759 22.4356 74.4274 22.2386L71.9956 21.6705C69.9804 21.2083 68.3933 20.4621 67.2342 19.4318C66.0751 18.3939 65.4994 16.9924 65.5069 15.2273C65.4994 13.7879 65.8857 12.5265 66.666 11.4432C67.4463 10.3598 68.5259 9.51515 69.9047 8.90909C71.2834 8.30303 72.8554 8 74.6206 8C76.4236 8 77.988 8.30682 79.3138 8.92045C80.6471 9.52652 81.6812 10.3788 82.416 11.4773C83.1509 12.5758 83.5259 13.8485 83.541 15.2955H78.1547Z" fill="#404040"/>
<path d="M90.3755 31.5909H84.33L92.1823 8.31818H99.6709L107.523 31.5909H101.478L96.0118 14.1818H95.83L90.3755 31.5909ZM89.5686 22.4318H102.205V26.7045H89.5686V22.4318Z" fill="#404040"/>
<path d="M109.389 31.5909V8.31818H119.003C120.745 8.31818 122.249 8.65909 123.514 9.34091C124.787 10.0152 125.768 10.9583 126.457 12.1705C127.146 13.375 127.491 14.7765 127.491 16.375C127.491 17.9811 127.139 19.3864 126.434 20.5909C125.737 21.7879 124.741 22.7159 123.446 23.375C122.15 24.0341 120.612 24.3636 118.832 24.3636H112.9V19.9318H117.787C118.635 19.9318 119.343 19.7841 119.912 19.4886C120.487 19.1932 120.923 18.7803 121.218 18.25C121.514 17.7121 121.662 17.0871 121.662 16.375C121.662 15.6553 121.514 15.0341 121.218 14.5114C120.923 13.9811 120.487 13.572 119.912 13.2841C119.336 12.9962 118.627 12.8523 117.787 12.8523H115.014V31.5909H109.389Z" fill="#404040"/>
<path d="M129.624 31.5909V8.31818H139.238C140.98 8.31818 142.484 8.63258 143.749 9.26136C145.022 9.88258 146.003 10.7765 146.692 11.9432C147.381 13.1023 147.726 14.4773 147.726 16.0682C147.726 17.6818 147.374 19.053 146.669 20.1818C145.965 21.303 144.965 22.1591 143.669 22.75C142.374 23.3333 140.84 23.625 139.067 23.625H132.988V19.1932H138.022C138.87 19.1932 139.578 19.0833 140.147 18.8636C140.722 18.6364 141.158 18.2955 141.453 17.8409C141.749 17.3788 141.897 16.7879 141.897 16.0682C141.897 15.3485 141.749 14.7538 141.453 14.2841C141.158 13.8068 140.722 13.4508 140.147 13.2159C139.571 12.9735 138.863 12.8523 138.022 12.8523H135.249V31.5909H129.624ZM142.726 20.9545L148.522 31.5909H142.385L136.703 20.9545H142.726Z" fill="#404040"/>
<path d="M150.171 31.5909V8.31818H166.399V12.8864H155.796V17.6591H165.569V22.2386H155.796V27.0227H166.399V31.5909H150.171Z" fill="#404040"/>
<path d="M181.861 15.2955C181.785 14.4621 181.448 13.8144 180.85 13.3523C180.259 12.8826 179.414 12.6477 178.315 12.6477C177.588 12.6477 176.982 12.7424 176.497 12.9318C176.012 13.1212 175.649 13.3826 175.406 13.7159C175.164 14.0417 175.039 14.4167 175.031 14.8409C175.016 15.1894 175.084 15.4962 175.236 15.7614C175.395 16.0265 175.622 16.2614 175.918 16.4659C176.221 16.6629 176.584 16.8371 177.009 16.9886C177.433 17.1402 177.91 17.2727 178.44 17.3864L180.44 17.8409C181.592 18.0909 182.607 18.4242 183.486 18.8409C184.372 19.2576 185.115 19.7538 185.713 20.3295C186.319 20.9053 186.778 21.5682 187.088 22.3182C187.399 23.0682 187.558 23.9091 187.565 24.8409C187.558 26.3106 187.187 27.572 186.452 28.625C185.717 29.678 184.66 30.4848 183.281 31.0455C181.91 31.6061 180.255 31.8864 178.315 31.8864C176.368 31.8864 174.672 31.5947 173.225 31.0114C171.778 30.428 170.653 29.5417 169.85 28.3523C169.047 27.1629 168.634 25.6591 168.611 23.8409H173.997C174.043 24.5909 174.243 25.2159 174.6 25.7159C174.956 26.2159 175.444 26.5947 176.065 26.8523C176.694 27.1098 177.422 27.2386 178.247 27.2386C179.005 27.2386 179.649 27.1364 180.179 26.9318C180.717 26.7273 181.13 26.4432 181.418 26.0795C181.706 25.7159 181.853 25.2992 181.861 24.8295C181.853 24.3902 181.717 24.0152 181.452 23.7045C181.187 23.3864 180.778 23.1136 180.225 22.8864C179.679 22.6515 178.982 22.4356 178.134 22.2386L175.702 21.6705C173.687 21.2083 172.1 20.4621 170.94 19.4318C169.781 18.3939 169.206 16.9924 169.213 15.2273C169.206 13.7879 169.592 12.5265 170.372 11.4432C171.153 10.3598 172.232 9.51515 173.611 8.90909C174.99 8.30303 176.562 8 178.327 8C180.13 8 181.694 8.30682 183.02 8.92045C184.353 9.52652 185.387 10.3788 186.122 11.4773C186.857 12.5758 187.232 13.8485 187.247 15.2955H181.861Z" fill="#404040"/>
<path d="M202.346 15.2955C202.27 14.4621 201.933 13.8144 201.335 13.3523C200.744 12.8826 199.899 12.6477 198.8 12.6477C198.073 12.6477 197.467 12.7424 196.982 12.9318C196.497 13.1212 196.134 13.3826 195.891 13.7159C195.649 14.0417 195.524 14.4167 195.516 14.8409C195.501 15.1894 195.569 15.4962 195.721 15.7614C195.88 16.0265 196.107 16.2614 196.403 16.4659C196.706 16.6629 197.069 16.8371 197.494 16.9886C197.918 17.1402 198.395 17.2727 198.925 17.3864L200.925 17.8409C202.077 18.0909 203.092 18.4242 203.971 18.8409C204.857 19.2576 205.6 19.7538 206.198 20.3295C206.804 20.9053 207.263 21.5682 207.573 22.3182C207.884 23.0682 208.043 23.9091 208.05 24.8409C208.043 26.3106 207.672 27.572 206.937 28.625C206.202 29.678 205.145 30.4848 203.766 31.0455C202.395 31.6061 200.74 31.8864 198.8 31.8864C196.853 31.8864 195.157 31.5947 193.71 31.0114C192.263 30.428 191.138 29.5417 190.335 28.3523C189.532 27.1629 189.119 25.6591 189.096 23.8409H194.482C194.528 24.5909 194.728 25.2159 195.085 25.7159C195.441 26.2159 195.929 26.5947 196.55 26.8523C197.179 27.1098 197.907 27.2386 198.732 27.2386C199.49 27.2386 200.134 27.1364 200.664 26.9318C201.202 26.7273 201.615 26.4432 201.903 26.0795C202.191 25.7159 202.338 25.2992 202.346 24.8295C202.338 24.3902 202.202 24.0152 201.937 23.7045C201.672 23.3864 201.263 23.1136 200.71 22.8864C200.164 22.6515 199.467 22.4356 198.619 22.2386L196.187 21.6705C194.172 21.2083 192.585 20.4621 191.425 19.4318C190.266 18.3939 189.691 16.9924 189.698 15.2273C189.691 13.7879 190.077 12.5265 190.857 11.4432C191.638 10.3598 192.717 9.51515 194.096 8.90909C195.475 8.30303 197.047 8 198.812 8C200.615 8 202.179 8.30682 203.505 8.92045C204.838 9.52652 205.872 10.3788 206.607 11.4773C207.342 12.5758 207.717 13.8485 207.732 15.2955H202.346Z" fill="#404040"/>
</svg>
