<svg id="Page-1" xmlns="http://www.w3.org/2000/svg" width="45" height="45" viewBox="0 0 45 45">
  <g id="_002---Visa-Approved" data-name="002---Visa-Approved">
    <path id="Shape" d="M39,0H6A6.007,6.007,0,0,0,0,6V39a6.007,6.007,0,0,0,6,6H39a6.007,6.007,0,0,0,6-6V6A6.007,6.007,0,0,0,39,0Zm0,43.5H6A4.5,4.5,0,0,1,1.5,39V23.25h42V39A4.5,4.5,0,0,1,39,43.5Zm4.5-21.75H1.5V6A4.5,4.5,0,0,1,6,1.5H39A4.5,4.5,0,0,1,43.5,6Z" fill="#dbdbdb"/>
    <path id="Shape-2" data-name="Shape" d="M11.936,4.794A.794.794,0,0,0,11.143,4H7.174A3.174,3.174,0,0,0,4,7.174v3.968a.794.794,0,1,0,1.587,0V7.174A1.587,1.587,0,0,1,7.174,5.587h3.968A.794.794,0,0,0,11.936,4.794Z" transform="translate(-0.826 -0.826)" fill="#dbdbdb"/>
    <path id="Shape-3" data-name="Shape" d="M50.762,4H46.794a.794.794,0,1,0,0,1.587h3.968a1.587,1.587,0,0,1,1.587,1.587v3.968a.794.794,0,0,0,1.587,0V7.174A3.174,3.174,0,0,0,50.762,4Z" transform="translate(-12.111 -0.826)" fill="#dbdbdb"/>
    <path id="Shape-4" data-name="Shape" d="M18.035,9.061A.794.794,0,0,0,17,9.488l-3.236,7.766L10.526,9.488a.794.794,0,0,0-1.465.611l3.968,9.523a.794.794,0,0,0,1.465,0L18.462,10.1a.794.794,0,0,0-.427-1.038Z" transform="translate(-1.857 -1.857)" fill="#dbdbdb"/>
    <path id="Shape-5" data-name="Shape" d="M45.494,9.488a.794.794,0,0,0-1.465,0l-3.968,9.523a.794.794,0,0,0,1.465.611l1.119-2.686h4.233L48,19.623a.794.794,0,1,0,1.465-.611Zm-2.187,5.861,1.455-3.492,1.455,3.492Z" transform="translate(-10.872 -1.857)" fill="#dbdbdb"/>
    <path id="Shape-6" data-name="Shape" d="M23.794,9A.794.794,0,0,0,23,9.794v9.523a.794.794,0,0,0,1.587,0V9.794A.794.794,0,0,0,23.794,9Z" transform="translate(-5.785 -2.369)" fill="#dbdbdb"/>
    <path id="Shape-7" data-name="Shape" d="M32.365,10.587c1.636,0,2.778.836,2.778,1.587a.794.794,0,1,0,1.587,0C36.73,10.394,34.812,9,32.365,9S28,10.394,28,12.174s1.917,3.174,4.365,3.174c1.636,0,2.778.836,2.778,1.587S34,18.523,32.365,18.523s-2.778-.836-2.778-1.587a.794.794,0,1,0-1.587,0c0,1.78,1.917,3.174,4.365,3.174s4.365-1.394,4.365-3.174-1.917-3.174-4.365-3.174c-1.637,0-2.778-.836-2.778-1.587S30.728,10.587,32.365,10.587Z" transform="translate(-7.274 -2.369)" fill="#dbdbdb"/>
    <path id="Shape-8" data-name="Shape" d="M22.253,33H7.174A3.174,3.174,0,0,0,4,36.174v11.9a3.174,3.174,0,0,0,3.174,3.174H22.253a3.174,3.174,0,0,0,3.174-3.174v-11.9A3.174,3.174,0,0,0,22.253,33Zm-11.9,16.666v-1.19a4.365,4.365,0,0,1,8.73,0v1.19Zm2.381-9.127a1.984,1.984,0,1,1,1.984,1.984A1.984,1.984,0,0,1,12.73,40.539ZM23.84,48.079a1.587,1.587,0,0,1-1.587,1.587H20.666v-1.19a5.952,5.952,0,0,0-3.451-5.4,3.571,3.571,0,1,0-5,0,5.952,5.952,0,0,0-3.454,5.4v1.19H7.174a1.587,1.587,0,0,1-1.587-1.587v-11.9a1.587,1.587,0,0,1,1.587-1.587H22.253a1.587,1.587,0,0,1,1.587,1.587Z" transform="translate(-0.826 -9.428)" fill="#dbdbdb"/>
    <path id="Shape-9" data-name="Shape" d="M42.333,34a8.333,8.333,0,1,0,8.333,8.333A8.333,8.333,0,0,0,42.333,34Zm0,15.079a6.746,6.746,0,1,1,6.746-6.746A6.746,6.746,0,0,1,42.333,49.079Z" transform="translate(-9.634 -9.634)" fill="#dbdbdb"/>
    <path id="Shape-10" data-name="Shape" d="M47,41.189l-5.793,5.066L39.353,44.4a.794.794,0,0,0-1.122,1.122L40.612,47.9a.794.794,0,0,0,1.084.036l6.349-5.555A.794.794,0,1,0,47,41.193Z" transform="translate(-10.461 -10.558)" fill="#dbdbdb"/>
  </g>
</svg>
