<svg xmlns="http://www.w3.org/2000/svg" width="44.994" height="45" viewBox="0 0 44.994 45">
  <g id="user-experience_copy" data-name="user-experience copy" transform="translate(-0.5 -0.001)">
    <path id="Path_11" data-name="Path 11" d="M42.459,22.507a31.28,31.28,0,0,0,2.21-5.655c1.622-5.858.837-10.764-2.212-13.813S34.5-.8,28.644.827a31.306,31.306,0,0,0-5.655,2.21A30,30,0,0,0,16.023.5C10.76-.655,6.323.247,3.532,3.039a10.973,10.973,0,0,0-3,7.281,22.249,22.249,0,0,0,1.566,8.9,4.174,4.174,0,0,0,0,6.562,22.249,22.249,0,0,0-1.566,8.9,10.975,10.975,0,0,0,3,7.281A11.213,11.213,0,0,0,11.731,45a18.444,18.444,0,0,0,2.112-.125,27.718,27.718,0,0,0,9.15-2.9,31.289,31.289,0,0,0,5.65,2.208A21.148,21.148,0,0,0,34.258,45a11.227,11.227,0,0,0,8.2-3.038c2.792-2.792,3.694-7.228,2.541-12.491A30.005,30.005,0,0,0,42.459,22.507ZM29,2.1c5.38-1.49,9.829-.824,12.527,1.874S44.886,11.119,43.4,16.5a29.285,29.285,0,0,1-1.7,4.561,43.237,43.237,0,0,0-4.668-6.724,4.176,4.176,0,0,0,.012-5.142L36,10.005a2.833,2.833,0,0,1,.6,1.755,2.859,2.859,0,1,1-1.4-2.462l.675-1.135a4.175,4.175,0,0,0-4.711.306A43.282,43.282,0,0,0,24.434,3.8,29.317,29.317,0,0,1,29,2.1ZM4.466,3.973C8.036.4,14.582.536,21.548,3.8a44.984,44.984,0,0,0-9.779,7.479,46.221,46.221,0,0,0-5.91,7.21,4.218,4.218,0,0,0-1.177-.167,4.17,4.17,0,0,0-1.423.25C.971,12.333,1.4,7.039,4.466,3.973Zm7.3,39.7a10.023,10.023,0,0,1-7.3-2.642C1.4,37.964.971,32.67,3.259,26.434a4.172,4.172,0,0,0,2.6.08,46.192,46.192,0,0,0,5.912,7.212A44.992,44.992,0,0,0,21.545,41.2,23.6,23.6,0,0,1,11.765,43.671ZM22.99,40.484A43.127,43.127,0,0,1,12.7,32.792a44.954,44.954,0,0,1-5.643-6.854,4.179,4.179,0,0,0,1.8-3.436c0-.124-.005-.249-.016-.373l-1.316.116c.008.084.011.17.011.256a2.859,2.859,0,1,1-.3-1.281l1.18-.592A4.186,4.186,0,0,0,7.064,19.06,44.978,44.978,0,0,1,12.7,12.21a43.115,43.115,0,0,1,10.29-7.694,41.413,41.413,0,0,1,7.265,4.922,4.18,4.18,0,0,0,5.8,5.8A41.423,41.423,0,0,1,40.979,22.5a43.132,43.132,0,0,1-7.694,10.29c-.352.352-.713.7-1.079,1.043a4.177,4.177,0,0,0-5.263-.11l.811,1.042a2.835,2.835,0,0,1,1.755-.6,2.86,2.86,0,1,1-2.462,1.4l-1.135-.675a4.178,4.178,0,0,0-.154,3.981Q24.37,39.759,22.99,40.484Zm18.532.546c-2.7,2.7-7.147,3.363-12.527,1.874a29.309,29.309,0,0,1-4.558-1.7q1.043-.583,2.085-1.25a4.179,4.179,0,0,0,6.546-5.115c.389-.364.775-.736,1.149-1.111A45,45,0,0,0,41.7,23.947C44.96,30.913,45.093,37.459,41.523,41.03Zm0,0" transform="translate(0 0)" fill="#dbdbdb"/>
    <path id="Path_12" data-name="Path 12" d="M251.695,264.665h-1.361v-3.318a3.305,3.305,0,0,0-2.4-3.169l-.492-.139-.357,1.268.492.139a1.983,1.983,0,0,1,1.439,1.9v3.318h-2.371v-1.8h-1.317v1.8H239.4v1.317h12.292Zm0,0" transform="translate(-217.884 -235.345)" fill="#dbdbdb"/>
    <path id="Path_13" data-name="Path 13" d="M146.2,120.6l2.745.775.358-1.268-2.69-.759V117.6a4.609,4.609,0,0,0,2.019-3.811v-1.932a4.61,4.61,0,1,0-9.219,0v1.932a4.609,4.609,0,0,0,2.019,3.811v1.749l-4.45,1.255a3.305,3.305,0,0,0-2.4,3.169v3.318h-1.361v1.317h7.99V127.09h-1.624v-1.8h-1.317v1.8H135.9v-3.318a1.983,1.983,0,0,1,1.439-1.9l4.5-1.27a2.954,2.954,0,0,0,4.356,0Zm-2.178-12.036a3.3,3.3,0,0,1,3.292,3.293v.733l-1.384-1.831h-5.012A3.3,3.3,0,0,1,144.026,108.563Zm-3.292,5.224v-1.712h4.545l1.93,2.553a3.292,3.292,0,0,1-6.476-.841Zm2.019,5.846v-1.416a4.581,4.581,0,0,0,2.546,0v1.416a1.637,1.637,0,0,1-2.546,0Zm0,0" transform="translate(-121.044 -97.796)" fill="#dbdbdb"/>
    <path id="Path_14" data-name="Path 14" d="M276.8,276.357l-1.855-.523.358-1.268,1.855.523Zm0,0" transform="translate(-250.324 -250.431)" fill="#dbdbdb"/>
    <path id="Path_15" data-name="Path 15" d="M312.18,284.943l-.358,1.268-1.268-.357.358-1.268Zm0,0" transform="translate(-282.801 -259.57)" fill="#dbdbdb"/>
    <path id="Path_16" data-name="Path 16" d="M371.129,126.281h1.317V127.6h-1.317Zm0,0" transform="translate(-338.051 -115.18)" fill="#dbdbdb"/>
    <path id="Path_17" data-name="Path 17" d="M323.047,413.77h1.317v1.317h-1.317Zm0,0" transform="translate(-294.196 -377.378)" fill="#dbdbdb"/>
    <path id="Path_18" data-name="Path 18" d="M40.566,248.488h1.317v1.317H40.566Zm0,0" transform="translate(-36.554 -226.645)" fill="#dbdbdb"/>
  </g>
</svg>
