<svg xmlns="http://www.w3.org/2000/svg" width="41" height="52.295" viewBox="0 0 41 52.295">
  <path id="passport1" d="M70.877,31.751h.009l.02,0h0l.012,0,.051,0h0a9.435,9.435,0,0,0,0-18.869l-.029,0h-.035c-.023,0-.045,0-.068,0s-.026,0-.039,0a9.429,9.429,0,0,0,.077,18.856Zm-7.244-6.2h2.144a10.778,10.778,0,0,0,2.556,4.34,8.055,8.055,0,0,1-4.7-4.34Zm15.36-3.226a8,8,0,0,1-.214,1.812H76.364a11.183,11.183,0,0,0,.155-1.83,11.019,11.019,0,0,0-.152-1.794h2.41A8,8,0,0,1,78.992,22.321Zm-3.886.018a9.582,9.582,0,0,1-.17,1.795H71.677V20.509h3.256A9.729,9.729,0,0,1,75.106,22.339Zm-7.837,3.208h3v4.191a9.408,9.408,0,0,1-3-4.191Zm4.408,4.082V25.547h2.871A9.413,9.413,0,0,1,71.677,29.629Zm0-10.532V15.014A9.4,9.4,0,0,1,74.544,19.1ZM70.264,14.9V19.1h-3A9.419,9.419,0,0,1,70.264,14.9Zm0,5.6v3.624H66.879a9.735,9.735,0,0,1-.173-1.83,9.586,9.586,0,0,1,.17-1.794Zm-4.819,3.624H63.164a7.774,7.774,0,0,1,0-3.624h2.285a11.188,11.188,0,0,0-.155,1.829A11.037,11.037,0,0,0,65.445,24.133Zm7.958,5.83a10.772,10.772,0,0,0,2.63-4.416h2.276A8.057,8.057,0,0,1,73.4,29.963ZM78.309,19.1H76.037A10.776,10.776,0,0,0,73.4,14.68,8.056,8.056,0,0,1,78.309,19.1Zm-9.977-4.341A10.773,10.773,0,0,0,65.779,19.1H63.632A8.055,8.055,0,0,1,68.332,14.755ZM95.848,9.278a3.915,3.915,0,0,0-2.3-1.95L71.186.188A3.953,3.953,0,0,0,66.23,2.746L64.746,7.393H59.235a3.949,3.949,0,0,0-3.944,3.944V48.351a3.948,3.948,0,0,0,3.944,3.944H82.706a3.948,3.948,0,0,0,3.944-3.944V41.891L96.1,12.284a3.916,3.916,0,0,0-.256-3.006ZM85.237,48.351a2.533,2.533,0,0,1-2.531,2.53H59.235a2.533,2.533,0,0,1-2.531-2.53V11.337a2.534,2.534,0,0,1,2.531-2.531H82.706a2.534,2.534,0,0,1,2.531,2.531Zm9.52-36.5L86.65,37.245V11.337a3.949,3.949,0,0,0-3.944-3.944H66.23l1.347-4.217a2.54,2.54,0,0,1,3.18-1.641L93.116,8.674a2.54,2.54,0,0,1,1.641,3.18ZM80.5,37.219a.707.707,0,0,1-.707.707H62.145a.707.707,0,0,1,0-1.413H79.8A.707.707,0,0,1,80.5,37.219Zm0,4.988a.707.707,0,0,1-.707.707H62.145a.707.707,0,0,1,0-1.413H79.8A.707.707,0,0,1,80.5,42.207Zm-4,4.989a.707.707,0,0,1-.707.707H66.148a.707.707,0,1,1,0-1.413h9.644A.707.707,0,0,1,76.5,47.2Z" transform="translate(-55.291 0)" fill="#00406b"/>
</svg>
