<svg id="phone-call" xmlns="http://www.w3.org/2000/svg" width="19.957" height="19.986" viewBox="0 0 19.957 19.986">
  <g id="Group_4" data-name="Group 4">
    <path id="Path_2" data-name="Path 2" d="M16.125,38.631a1.966,1.966,0,0,0-1.426-.654,2.033,2.033,0,0,0-1.443.65l-1.333,1.329c-.11-.059-.219-.114-.325-.169-.152-.076-.3-.148-.418-.224A14.487,14.487,0,0,1,7.71,36.4a8.547,8.547,0,0,1-1.139-1.8c.346-.316.666-.645.979-.962.118-.118.236-.24.354-.359a1.935,1.935,0,0,0,0-2.919L6.752,29.211c-.131-.131-.266-.266-.392-.4-.253-.262-.519-.531-.793-.785a2,2,0,0,0-1.413-.62,2.066,2.066,0,0,0-1.434.62l-.008.008L1.277,29.481a3.086,3.086,0,0,0-.915,1.961,7.4,7.4,0,0,0,.54,3.13,18.162,18.162,0,0,0,3.227,5.382,19.85,19.85,0,0,0,6.61,5.176,10.3,10.3,0,0,0,3.712,1.1c.089,0,.181.008.266.008A3.178,3.178,0,0,0,17.15,45.19c0-.008.013-.013.017-.021a9.589,9.589,0,0,1,.738-.763c.181-.173.367-.354.548-.544a2.1,2.1,0,0,0,.637-1.459,2.027,2.027,0,0,0-.65-1.447Zm1.51,4.442s0,0,0,0c-.165.177-.333.337-.515.515a11.092,11.092,0,0,0-.814.844,2.034,2.034,0,0,1-1.586.671c-.063,0-.131,0-.194,0a9.149,9.149,0,0,1-3.29-.987A18.738,18.738,0,0,1,5.01,39.234a17.125,17.125,0,0,1-3.037-5.058A6.023,6.023,0,0,1,1.5,31.536a1.936,1.936,0,0,1,.582-1.253l1.438-1.438a.959.959,0,0,1,.641-.3.9.9,0,0,1,.616.3l.013.013c.257.24.5.489.759.755.131.135.266.27.4.409L7.1,31.169a.805.805,0,0,1,0,1.308c-.122.122-.24.245-.363.363-.354.363-.692.7-1.059,1.029-.008.008-.017.013-.021.021a.86.86,0,0,0-.219.958l.013.038a9.245,9.245,0,0,0,1.362,2.223l0,0a15.482,15.482,0,0,0,3.746,3.408,5.76,5.76,0,0,0,.519.283c.152.076.3.148.418.224.017.008.034.021.051.03a.914.914,0,0,0,.418.105.9.9,0,0,0,.641-.291l1.443-1.443a.954.954,0,0,1,.637-.316.859.859,0,0,1,.607.308l.008.008,2.324,2.324A.834.834,0,0,1,17.635,43.072Z" transform="translate(-0.344 -26.25)" fill="#00406b"/>
    <path id="Path_3" data-name="Path 3" d="M245.412,87.055a5.429,5.429,0,0,1,4.421,4.421.566.566,0,0,0,.561.472.751.751,0,0,0,.1-.008.57.57,0,0,0,.468-.658,6.564,6.564,0,0,0-5.349-5.349.572.572,0,0,0-.658.464A.563.563,0,0,0,245.412,87.055Z" transform="translate(-234.626 -82.301)" fill="#00406b"/>
    <path id="Path_4" data-name="Path 4" d="M258.244,8.816A10.809,10.809,0,0,0,249.437.009a.569.569,0,1,0-.186,1.122A9.655,9.655,0,0,1,257.122,9a.566.566,0,0,0,.561.472.753.753,0,0,0,.1-.008A.559.559,0,0,0,258.244,8.816Z" transform="translate(-238.296 0)" fill="#00406b"/>
  </g>
</svg>
