<svg xmlns="http://www.w3.org/2000/svg" width="45" height="45" viewBox="0 0 45 45">
  <g id="security" transform="translate(-1 -1)">
    <path id="Path_19" data-name="Path 19" d="M38,22.774H22.041A3.632,3.632,0,0,0,18.413,26.4v1.808a10.372,10.372,0,0,0-3.8-1.709l-.089-.269a4.359,4.359,0,0,0,3.161-4.185,2.906,2.906,0,0,0,2.9-2.9,2.867,2.867,0,0,0-.332-1.32,7.323,7.323,0,0,0,.213-.857h3.021a2.18,2.18,0,0,0,2.177-2.177V3.177A2.18,2.18,0,0,0,23.492,1H8.981A2.18,2.18,0,0,0,6.8,3.177V9.3a7.351,7.351,0,0,0-3.3,8.524,2.861,2.861,0,0,0-.332,1.32,2.905,2.905,0,0,0,2.9,2.9A4.359,4.359,0,0,0,9.24,26.233l-.089.269A10.442,10.442,0,0,0,1,36.7a6.407,6.407,0,0,0,6.4,6.4h4.162a2.874,2.874,0,0,0-.4,1.452V46H37.277V44.548a2.906,2.906,0,0,0-2.9-2.9h-.109l-.295-1.452H38a3.632,3.632,0,0,0,3.628-3.629V26.4A3.632,3.632,0,0,0,38,22.774Zm-27.57,4.472.281-.843h2.34l.282.844v.608a1.451,1.451,0,1,1-2.9,0Zm7.255-6.65v-2.9a1.452,1.452,0,0,1,0,2.9ZM8.255,3.177a.726.726,0,0,1,.726-.726H23.492a.726.726,0,0,1,.726.726V14.79a.726.726,0,0,1-.726.726H20.582a7.4,7.4,0,0,0-7.388-7.258H10.571a7.364,7.364,0,0,0-2.316.377ZM4.628,19.145a1.454,1.454,0,0,1,1.45-1.452v2.9A1.454,1.454,0,0,1,4.628,19.145Zm1.553-2.9h-.1a2.858,2.858,0,0,0-1.373.361A5.933,5.933,0,0,1,10.571,9.71h2.623A5.932,5.932,0,0,1,19.06,16.6a2.865,2.865,0,0,0-1.373-.361,2.9,2.9,0,0,0-2.9-2.9H8.863l-.112.038A3.9,3.9,0,0,0,6.181,16.242Zm1.348,5.806V17.086a2.456,2.456,0,0,1,1.566-2.291,1.341,1.341,0,0,1,1.337,1.447h1.451a3.007,3.007,0,0,0-.34-1.452h.34a2.035,2.035,0,0,1,.764.2,1.251,1.251,0,0,1,.687,1.256h1.451a3.043,3.043,0,0,0-.344-1.452h.345a1.451,1.451,0,0,1,1.45,1.452v5.806a2.906,2.906,0,0,1-2.9,2.9h-2.9a2.906,2.906,0,0,1-2.9-2.9ZM2.451,36.7A8.993,8.993,0,0,1,9,28.038a2.888,2.888,0,0,0,5.767,0,8.934,8.934,0,0,1,3.647,2.042v6.481a3.636,3.636,0,0,0,2.9,3.556v1.525H18.377a3.623,3.623,0,0,0-3.142-3.215l-6.524-.817A2.18,2.18,0,0,1,6.8,35.453V33.661H5.353v1.792a3.634,3.634,0,0,0,3.178,3.6l4.078.51v2.081H7.4A4.955,4.955,0,0,1,2.451,36.7Zm23.326,4.949H22.766V40.194h3.306Zm-11.717-1.9,1,.125a2.182,2.182,0,0,1,1.873,1.775H14.06Zm21.766,4.8H12.609A1.453,1.453,0,0,1,14.06,43.1H34.375A1.453,1.453,0,0,1,35.826,44.548Zm-8.569-2.9,1.18-5.806H31.6l1.18,5.806Zm12.922-5.081A2.18,2.18,0,0,1,38,38.742H33.676l-.885-4.355H27.251l-.885,4.355H22.041a2.18,2.18,0,0,1-2.177-2.177V26.4a2.18,2.18,0,0,1,2.177-2.177H38A2.18,2.18,0,0,1,40.179,26.4Z" transform="translate(0 0)" fill="#dbdbdb"/>
    <path id="Path_20" data-name="Path 20" d="M17.826,28H16.37a1.457,1.457,0,1,1-2.913,0H12a2.913,2.913,0,1,0,5.826,0Z" transform="translate(-3.02 -7.408)" fill="#dbdbdb"/>
    <circle id="Ellipse_6" data-name="Ellipse 6" cx="1" cy="1" r="1" transform="translate(8.55 17.518)" fill="#dbdbdb"/>
    <ellipse id="Ellipse_7" data-name="Ellipse 7" cx="0.5" cy="1" rx="0.5" ry="1" transform="translate(13.533 17.518)" fill="#dbdbdb"/>
    <path id="Path_21" data-name="Path 21" d="M53.751,1H39.185A2.188,2.188,0,0,0,37,3.185V14.838a2.188,2.188,0,0,0,2.185,2.185H53.751a2.188,2.188,0,0,0,2.185-2.185V3.185A2.188,2.188,0,0,0,53.751,1Zm.728,13.838a.729.729,0,0,1-.728.728H39.185a.729.729,0,0,1-.728-.728V3.185a.729.729,0,0,1,.728-.728H53.751a.729.729,0,0,1,.728.728Z" transform="translate(-9.936)" fill="#dbdbdb"/>
    <path id="Path_22" data-name="Path 22" d="M13,5H26.109V6.457H13Z" transform="translate(-3.303 -1.087)" fill="#dbdbdb"/>
    <path id="Path_23" data-name="Path 23" d="M23,9h5.826v1.457H23Z" transform="translate(-6.04 -2.174)" fill="#dbdbdb"/>
    <path id="Path_24" data-name="Path 24" d="M41,17.37h5.826V13H41Zm1.457-2.913H45.37v1.457H42.457Z" transform="translate(-10.983 -3.294)" fill="#dbdbdb"/>
    <path id="Path_25" data-name="Path 25" d="M41,5H54.109V6.457H41Z" transform="translate(-11.023 -1.087)" fill="#dbdbdb"/>
    <path id="Path_26" data-name="Path 26" d="M41,9H54.109v1.457H41Z" transform="translate(-11.023 -2.174)" fill="#dbdbdb"/>
    <path id="Path_27" data-name="Path 27" d="M51,13h5.826v1.457H51Z" transform="translate(-13.74 -3.291)" fill="#dbdbdb"/>
    <path id="Path_28" data-name="Path 28" d="M51,17h5.826v1.457H51Z" transform="translate(-13.74 -4.388)" fill="#dbdbdb"/>
  </g>
</svg>
