<svg xmlns="http://www.w3.org/2000/svg" width="42.586" height="46" viewBox="0 0 42.586 46">
  <path id="satisfaction" d="M55.8,28.746a2.928,2.928,0,0,0-2.925-2.925H44.021a12.169,12.169,0,0,0,.012-9.253A.693.693,0,0,0,44,16.492a2.761,2.761,0,0,0-4.939.227.706.706,0,0,0-.058.234L38.79,19.92A7.167,7.167,0,0,1,36.2,24.237c-.543.191-1.538.865-4.133,3.335V27.5A1.468,1.468,0,0,0,30.6,26.031H23.22A1.468,1.468,0,0,0,21.754,27.5v14.73a1.468,1.468,0,0,0,1.466,1.467H30.6a1.468,1.468,0,0,0,1.466-1.466v-.065a8.065,8.065,0,0,1,4.325,2.128A2.572,2.572,0,0,0,38.2,45H49.637a2.923,2.923,0,0,0,2.251-4.79,3.112,3.112,0,0,0,1.563-2.577,2.91,2.91,0,0,0-.616-1.794,3.18,3.18,0,0,0,1.6-2.649,2.908,2.908,0,0,0-.546-1.7A2.93,2.93,0,0,0,55.8,28.746ZM30.661,42.228a.062.062,0,0,1-.06.06H23.22a.062.062,0,0,1-.06-.06V27.5a.062.062,0,0,1,.06-.06H30.6a.062.062,0,0,1,.06.06Zm22.21-11.964H50.428a.7.7,0,0,0,0,1.406h1.079a1.521,1.521,0,0,1,1.518,1.518,1.834,1.834,0,0,1-1.584,1.665,2.914,2.914,0,0,0-.916-.147.7.7,0,0,0,0,1.406,1.512,1.512,0,0,1,.521.092c.019.008.037.016.057.022a1.521,1.521,0,0,1,.94,1.4,1.825,1.825,0,0,1-1.64,1.62,2.918,2.918,0,0,0-.767-.1.7.7,0,1,0,0,1.406,1.515,1.515,0,0,1,.435.063l.051.016a1.518,1.518,0,0,1-.486,2.957H38.2a1.177,1.177,0,0,1-.846-.332,9.619,9.619,0,0,0-5.282-2.536v-11.2l.125-.121c3.451-3.352,4.3-3.787,4.476-3.839a.7.7,0,0,0,.287-.131,8.571,8.571,0,0,0,3.226-5.3.737.737,0,0,0,.009-.075l.2-2.869a1.355,1.355,0,0,1,2.355-.046,10.769,10.769,0,0,1-.454,9.055.7.7,0,0,0,.623,1.03h9.955a1.518,1.518,0,1,1,0,3.037Zm-24.593-.517v.085a.7.7,0,0,1-1.406,0v-.085a.7.7,0,1,1,1.406,0Zm21.1-23.72a.7.7,0,0,0-.6-.483l-5.04-.475L41.725.424a.7.7,0,0,0-1.291,0L38.425,5.07l-5.039.475a.7.7,0,0,0-.4,1.228l3.8,3.346-1.106,4.939a.7.7,0,0,0,1.044.759l4.356-2.578,4.356,2.578a.7.7,0,0,0,1.044-.759l-1.106-4.939,3.8-3.346A.7.7,0,0,0,49.376,6.028ZM44.132,9.339a.7.7,0,0,0-.221.681l.841,3.759-3.315-1.962a.7.7,0,0,0-.716,0l-3.315,1.962.841-3.759a.7.7,0,0,0-.221-.681l-2.89-2.546,3.835-.361a.7.7,0,0,0,.579-.421l1.529-3.535L42.608,6.01a.7.7,0,0,0,.579.421l3.835.361Zm17.623.809a.7.7,0,0,0-.6-.483L57.6,9.33,56.185,6.056a.7.7,0,0,0-1.291,0L53.478,9.33l-3.551.335a.7.7,0,0,0-.4,1.228L52.2,13.251l-.779,3.481a.7.7,0,0,0,1.044.758l3.07-1.817,3.069,1.817a.7.7,0,0,0,1.044-.759l-.779-3.481,2.676-2.358a.7.7,0,0,0,.2-.745Zm-4.122,2.323a.7.7,0,0,0-.221.681l.515,2.3-2.029-1.2a.7.7,0,0,0-.716,0l-2.028,1.2.515-2.3a.7.7,0,0,0-.221-.681l-1.769-1.558,2.347-.221a.7.7,0,0,0,.579-.421l.935-2.163.935,2.163a.7.7,0,0,0,.579.421l2.347.221Zm-25.4-2.806L28.681,9.33,27.264,6.056a.7.7,0,0,0-1.291,0L24.558,9.33l-3.551.335a.7.7,0,0,0-.4,1.228l2.676,2.358-.779,3.481a.7.7,0,0,0,1.044.758l3.07-1.817,3.069,1.817a.7.7,0,0,0,1.044-.759l-.779-3.481,2.677-2.358a.7.7,0,0,0-.4-1.228Zm-3.519,2.806a.7.7,0,0,0-.221.681l.515,2.3-2.029-1.2a.7.7,0,0,0-.716,0l-2.028,1.2.515-2.3a.7.7,0,0,0-.221-.681l-1.769-1.558,2.347-.221a.7.7,0,0,0,.579-.421l.935-2.163.935,2.163a.7.7,0,0,0,.579.421l2.347.221Z" transform="translate(-19.857 0.5)" fill="#dbdbdb" stroke="rgba(0,0,0,0)" stroke-miterlimit="10" stroke-width="1"/>
</svg>
